<svg xmlns="http://www.w3.org/2000/svg" style="display: none;">
  <defs>
    <!-- Soft Cloud 1 -->
    <symbol id="cloud1" viewBox="0 0 200 100">
      <path d="M170 80c0 11-9 20-20 20H50c-16.5 0-30-13.5-30-30s13.5-30 30-30c0.8 0 1.6 0 2.4 0.1C54.9 23.9 68.9 10 86 10c14.4 0 26.8 10 30 24.1 2.3-1.4 5-2.1 8-2.1 8.3 0 15 6.7 15 15 0 0.3 0 0.7 0 1 16.5 0 31 11.2 31 28z"
            fill="white" opacity="0.9"/>
    </symbol>

    <!-- Fluffy Cloud 2 -->
    <symbol id="cloud2" viewBox="0 0 250 120">
      <g opacity="0.85">
        <ellipse cx="60" cy="70" rx="35" ry="25" fill="white"/>
        <ellipse cx="100" cy="65" rx="45" ry="35" fill="white"/>
        <ellipse cx="150" cy="68" rx="40" ry="30" fill="white"/>
        <ellipse cx="190" cy="75" rx="30" ry="22" fill="white"/>
        <rect x="60" y="70" width="130" height="30" fill="white"/>
      </g>
    </symbol>

    <!-- Simple Cloud 3 -->
    <symbol id="cloud3" viewBox="0 0 180 90">
      <path d="M45 75c-13.255 0-24-10.745-24-24s10.745-24 24-24c0.564 0 1.12 0.02 1.672 0.058C51.02 16.31 61.918 9 74.5 9c16.094 0 29.5 12.006 31.432 27.468 1.184-0.306 2.42-0.468 3.693-0.468 7.456 0 13.5 5.596 13.5 12.5 0 0.94-0.112 1.855-0.322 2.73C134.116 52.312 143 61.534 143 72.5c0 11.598-9.402 21-21 21H45z"
            fill="white" opacity="0.88"/>
    </symbol>

    <!-- Wispy Cloud 4 -->
    <symbol id="cloud4" viewBox="0 0 220 100">
      <g opacity="0.75">
        <path d="M30 60c0-16.569 13.431-30 30-30 8.42 0 16.03 3.47 21.48 9.06C86.58 33.68 94.27 30 103 30c13.807 0 25 11.193 25 25 0 1.03-0.062 2.045-0.184 3.04C136.862 58.554 144 66.018 144 75c0 9.389-7.611 17-17 17H40c-11.046 0-20-8.954-20-20s8.954-20 20-20h10"
              fill="none" stroke="white" stroke-width="15" stroke-linecap="round" stroke-linejoin="round"/>
        <circle cx="60" cy="60" r="25" fill="white"/>
        <circle cx="103" cy="55" r="28" fill="white"/>
        <circle cx="140" cy="65" r="22" fill="white"/>
      </g>
    </symbol>

    <!-- Decorative Cloud 5 -->
    <symbol id="cloud5" viewBox="0 0 200 100">
      <g opacity="0.8">
        <circle cx="50" cy="60" r="20" fill="white"/>
        <circle cx="75" cy="50" r="25" fill="white"/>
        <circle cx="105" cy="45" r="28" fill="white"/>
        <circle cx="135" cy="50" r="24" fill="white"/>
        <circle cx="160" cy="60" r="18" fill="white"/>
        <ellipse cx="105" cy="70" rx="65" ry="20" fill="white"/>
      </g>
    </symbol>
  </defs>
</svg>