<?xml version="1.0" encoding="UTF-8"?>
<svg id="Layer_1" data-name="Layer 1" xmlns="http://www.w3.org/2000/svg" viewBox="0 0 113.4 75.6">
  <defs>
    <style>
      .cls-1 {
        stroke: #fff;
        stroke-miterlimit: 10;
      }

      .cls-1, .cls-2 {
        fill: #fff;
      }
    </style>
  </defs>
  <path d="M70.11,11.42h0c.07.06.14.12.21.18-.07-.06-.14-.12-.21-.18ZM70.11,11.42h0c.07.06.14.12.21.18-.07-.06-.14-.12-.21-.18Z"/>
  <path class="cls-2" d="M75.6,0c-6.91,0-13.39,1.84-18.9,5.08C51.08,1.84,44.71,0,37.8,0,16.95,0,0,16.96,0,37.8s16.95,37.8,37.8,37.8c6.91,0,13.28-1.83,18.9-5.07,5.51,3.24,11.99,5.07,18.9,5.07,20.84,0,37.8-16.95,37.8-37.8S96.44,0,75.6,0ZM33.95,2.36c1.26-.21,2.55-.31,3.85-.31.58,0,1.16.02,1.74.07-.54-.03-1.07-.05-1.61-.05-1.35,0-2.67.1-3.98.29ZM56.8,10.27s-.03-.04-.05-.06c.02,0,.05,0,.07.02h.01s-.02.03-.03.04ZM75.6,73.55c-5.62,0-10.91-1.94-15.45-5.29,9.4-6.81,15.45-17.93,15.45-30.46,0-11.37-5.04-21.52-12.97-28.51-.14-.13-.27-.25-.41-.37l-.24-.21c-.07-.06-.14-.12-.21-.17-.48-.4-1.03-.8-1.65-1.17,0,0,.02-.01.03-.02,4.54-3.35,9.83-5.3,15.45-5.3,16.31,0,29.48,15.99,29.48,35.75s-13.17,35.75-29.48,35.75Z"/>
  <path class="cls-2" d="M56.83,10.24s-.02.02-.03.03c-.02-.02-.03-.04-.05-.06.02,0,.05,0,.07.02h.01Z"/>
  <path class="cls-1" d="M37.8,2.05c.58,0,1.16.02,1.74.07-.54-.03-1.07-.05-1.61-.05-1.35,0-2.67.1-3.98.29,1.26-.21,2.55-.31,3.85-.31Z"/>
  <path class="cls-1" d="M56.83,10.24s-.02.02-.03.03c-.02-.02-.03-.04-.05-.06.02,0,.05,0,.07.02h.01Z"/>
</svg>