<?xml version="1.0" encoding="UTF-8"?>
<svg id="Layer_2" data-name="Layer 2" xmlns="http://www.w3.org/2000/svg" viewBox="0 0 57.03 10.05">
  <defs>
    <style>
      .cls-1 {
        fill: #fff;
      }
    </style>
  </defs>
  <g id="Layer_1-2" data-name="Layer 1">
    <g>
      <path class="cls-1" d="M29.91,9.47c0,.13,0,.27,0,.4h-2.26v-4.32c0-.7-1.35-1.04-1.78-.43-.1.15-.35.83-.35.97v3.79h-2.26l.13-6.78h2.13s-.08.49.07.53c1.11-1.07,2.92-.94,3.86.26.86-1.24,3.25-1.36,4.19-.2.13.17.67,1.2.67,1.33v4.85h-2.26v-4.32c0-.12-.45-.65-.63-.7-1.67-.5-1.47,1.5-1.5,2.5-.11.33-.28,1.15-.06,1.66-.18.22-.16.38.06.47Z"/>
      <path class="cls-1" d="M4.39.3l.03.15c-.9.14-1.8.27-2.69.38.95-.18,1.85-.32,2.79,0-1.15-.14-.81-.39.17-.4l.89.13c.31.1.49.07.84.29,2.27,1.42,1.65,5.06-.98,5.56.27.43.69.73,1.06,1.06.07.15.28,1.02.26,1.07-.1.21-.34.26-.54.16-.41.48-.97.49-1.45.09-.11-.1-.19-.2-.27-.27-.08-.22-.18-.32-.4-.4-.04-.03-.22-.03-.33-.13-.51-.44-.93-1-1.53-1.33v3.19H.2s-.1.17-.2.13V.3h4.39Z"/>
      <path class="cls-1" d="M20.47,4.02c0-.32.06-.45.18-.39.05-.84.06-1.68.01-2.53-.14-.91.99-1.24,1.7-.86l.37-.07c.38.38-.01,8.53.13,9.7h-2.26c.04-.98-.18-.39-.54-.21-1.23.61-2.55.44-3.58-.46-.13-.26-.31-.48-.53-.66-.02-.04.01-.09,0-.13l-.27-.53c-.59-1.62-.27-3.39,1.2-4.39l1.02-.29c.5.55.78.62,1.03-.14.51-.26,1.01.3,1.13.7.17-.06.3.03.4.27Z"/>
      <path class="cls-1" d="M9.97,6.94c.68,1.91,3.24.7,4.79,1.12.27.19.06,1.54.12,1.94h-4.19c-1.25,0-2.77-1.53-2.96-2.76-.88-5.63,8.12-5.94,7.28-.03h-4.05c-.49,0-.68-.53-.86-.8-.16.06-.21.23-.13.53Z"/>
      <path class="cls-1" d="M49.85,5.75c.07.53.09,1.07,0,1.6-1.15,4.2-7.78,3.35-7.32-1.4.38-3.87,6.45-4.25,7.32-.19Z"/>
      <path class="cls-1" d="M34.83,7.21c-.09-.66-.05-1.33.13-1.99,1.28-3.85,7.51-2.68,7.18,1.53s-6.5,4.54-7.31.47Z"/>
      <path class="cls-1" d="M52.51,3.09c.04.13-.03.37,0,.53,1.09-.92,3.08-1.1,3.97.22.17.25.55,1.32.55,1.57v4.45h-2.26v-4.32c0-.26-.54-.7-.86-.74-2.3-.26-1.03,3.93-1.4,5.06-.17.06-.41.13-.53,0-.21-.1-.45-.1-.66,0-.17.09-.97.09-1,.05-.03-.64,0-1.28.07-1.91.18-.52.28-1.1,0-1.6-.09-1.12-.09-2.24-.07-3.36,0-.11,1.97-.03,2.19.04Z"/>
      <path class="cls-1" d="M6.51,7.47c.88.78,1.81,1.52,2.66,2.33-.31.28-.7.07-1.06.07-.09-.13-.31-.13-.66,0-.44-.02-1.13.08-1.5-.03-.18-.05-.92-.84-1.16-1.04.18.2,1.15-.08,1.2-.13.02-.03-.19-.33-.13-.4l.66.26c.15-.34-.27-.25-.26-.32.01-.16.22-.53.26-.74Z"/>
      <path class="cls-1" d="M22.73.16l-.2.53c-.41-.17-.36-.55-.8-.55s-.29.19-.48.33c-.13.1-.38.11-.46.21-.12.16-.08,1.12-.05,1.39.06.61.18.2.03.98-.05.24-.04.93-.31.96-.09-.2-.22-.28-.4-.27-.13-.06-.61-.22-.66-.28-.06-.09.18-.34.13-.38-.49-.41-.35.8-1.01.79-.54,0-.63-.43-.74-.49-.34-.17-.56.34-.9.09,1.12-.77,2.67-.79,3.72.13V.23c0-.27,1.88-.31,2.13-.07Z"/>
      <path class="cls-1" d="M52.51,3.09h-2.13c0,1.11,0,2.22,0,3.32.28.5.2,1.07,0,1.6,0,.62,0,1.24,0,1.86.31,0,.62-.01.93,0,.21-.11.46-.11.66,0h.53c-.09.29-1.86.06-2.26.13V2.95c.39.07,2.17-.15,2.26.13Z"/>
      <path class="cls-1" d="M5.58.56h-1.73s.66.27.66.27H1.73l.93-.26c-.37-.01-.75.01-1.13,0-.16,0-.49.1-.46-.13,1-.02,2,.02,3,0,.17,0,.3-.14.32-.14.65-.03.7.11,1.2.27Z"/>
      <path class="cls-1" d="M29.91,7.34c-.02.71.02,1.42,0,2.13-.24.21-.37.06-.4-.2-.04-.3.32-.15.27-.26-.04-.07-.19-.15-.24-.3-.18-.62.17-.54.2-.63.09-.24-.29-.84.16-.73Z"/>
      <path class="cls-1" d="M34.96,5.21l-.13,1.2.46-.26c.27.38-.29.28-.33.34-.35.45.14.22.13.46l-.26.27c-.2-1.01-.18-1.04.13-1.99Z"/>
      <path class="cls-1" d="M49.85,7.34v-1.6c.16.73.2.87,0,1.6Z"/>
      <path class="cls-1" d="M16.48,9.2c-.22-.19-.42-.4-.53-.66l.26-.13.27.8Z"/>
      <path class="cls-1" d="M4.12,8.14h.53s-.13.4-.13.4c-.17-.14-.28-.3-.4-.4Z"/>
      <path class="cls-1" d="M10.1,6.41l-.13.53c-.08-.21-.22-.36-.13-.66.23-.05.2.03.27.13Z"/>
      <path class="cls-1" d="M8.11,9.87c-.22,0-.44,0-.66,0,.29-.16.79-.45.66,0Z"/>
      <path class="cls-1" d="M15.95,8.4c-.23-.12-.2-.35-.27-.53.33.08.21.36.27.53Z"/>
      <path class="cls-1" d="M28.45,9.47c.34.15.74-.64.92-.2s-.75.72-.92.2Z"/>
      <path class="cls-1" d="M5.32,2.69c.07.09.14.59.14.73,0,.78-.2.89-.81,1.26-.7.16-1.65.09-2.39,0-.28-.01-.31-.25-.06-.72-.24-.69-.22-1.24.06-1.67,0-.03.02-.06.04-.07.1-.04,2.06-.12,2.2-.11.03,0,.06.08.09.18.21-.36.88.02.73.4Z"/>
      <path class="cls-1" d="M2.26,4.68c-.08,0-.55.36-.49-.2.01-.14.37-.27.36-.52,0-.16-.2-.29-.24-.44-.06-.25.27-.51-.3-.56.63-1.33,1.29-.69,2.29-.82.44-.06.91-.45,1.04-.45.43.02,1.18.36.92.87-.01.02-.42-.19-.53.13-.03-.03-.69-.4-.73-.4h-2.33v2.39Z"/>
      <path class="cls-1" d="M3.72.96c-.17.16-.23.9-.27.93-.26.24-.25-.25-.33-.27-.29-.06-.18.19-.23.22-.59.39-.22-.28-.23-.42,0-.06-.49-.1-.27-.34.1-.11,1.23-.2,1.33-.13Z"/>
      <path class="cls-1" d="M4.65,4.68s-.05.21-.19.22c-.67-.12-1.34-.03-2.01-.09-.24-.02-.18-.13-.19-.13h2.39Z"/>
      <path class="cls-1" d="M19.94,4.95c.19.32.55.52.64.89.26,1.13-.2,2.35-1.5,2.31-1.69-.05-1.9-2.64-.6-3.2.34-.45.57-.52.69-.21.36-.14.58-.16.78.21Z"/>
      <path class="cls-1" d="M18.48,4.95c.44-.36,0-.52,0-.6,0-.33.79-.28.66.33.84-.54.6-.06.8.27-.47-.16-1-.2-1.46,0Z"/>
      <path class="cls-1" d="M20.47,4.02c-.1,0-.27-.21-.4-.27.22-.27.4,0,.4.27Z"/>
      <path class="cls-1" d="M12.9,6.01h-2.92c.34-1.58,2.71-1.71,2.92,0Z"/>
      <path class="cls-1" d="M44.67,8.94c1.68-1.36,1.76-3.79-.13-4.98,3.67,0,3.95,4.79.13,4.98Z"/>
      <path class="cls-1" d="M39.48,4.02c.24-.05.33,0,.27.13-.4.36-.6.72-.8,1.2l-.27,1.06s0,.09,0,.13c.13.51.31.99.53,1.46.06.09.05.24.19.4.2.23.5.3.61.53-3.35-.06-4-4.13-.53-4.92Z"/>
      <path class="cls-1" d="M39.22,8.01c-.38-.59-.49-.66-.53-1.46.37.41.31.98.53,1.46Z"/>
      <path class="cls-1" d="M38.69,6.41c0-.57.07-.6.27-1.06l-.27,1.06Z"/>
      <path class="cls-1" d="M39.48,4.02c.17-.04.38-.25.66-.13.06.2-.26.15-.4.26l-.27-.13Z"/>
      <path class="cls-1" d="M50.38,8.01c0-.53,0-1.07,0-1.6.57.22.36,1.27,0,1.6Z"/>
      <path class="cls-1" d="M51.98,9.87c-.22,0-.44,0-.66,0,.09-.21.58-.21.66,0Z"/>
    </g>
  </g>
</svg>